<?xml version="1.0" standalone="no"?>
<!DOCTYPE svg PUBLIC "-//W3C//DTD SVG 20010904//EN"
 "http://www.w3.org/TR/2001/REC-SVG-20010904/DTD/svg10.dtd">
<svg version="1.0" xmlns="http://www.w3.org/2000/svg"
 width="700.000000pt" height="700.000000pt" viewBox="0 0 700.000000 700.000000"
 preserveAspectRatio="xMidYMid meet">
<metadata>
Created by potrace 1.14, written by Peter Selinger 2001-2017
</metadata>
<g transform="translate(0.000000,700.000000) scale(0.100000,-0.100000)"
fill="#000000" stroke="none">
<path d="M3230 6554 c-19 -2 -87 -9 -150 -15 -626 -59 -1279 -301 -1785 -663
-1305 -930 -1671 -2521 -880 -3821 90 -148 243 -349 355 -468 l93 -98 -7 -62
c-36 -335 -154 -790 -296 -1146 -23 -58 -40 -118 -40 -140 0 -50 38 -98 83
-106 37 -7 322 44 592 105 440 99 858 236 1185 387 l94 44 106 -25 c129 -31
358 -71 505 -88 171 -20 695 -17 875 5 859 106 1610 459 2174 1023 1057 1057
1156 2611 241 3759 -565 709 -1418 1167 -2405 1291 -118 14 -655 28 -740 18z
m355 -1323 c45 -21 89 -61 113 -106 15 -27 17 -100 20 -717 l3 -687 687 -3
c755 -3 710 0 776 -65 106 -104 77 -277 -59 -351 -27 -15 -100 -17 -717 -20
l-687 -3 -3 -687 c-3 -755 0 -710 -65 -776 -84 -86 -222 -86 -306 0 -65 66
-62 21 -65 776 l-3 687 -687 3 c-755 3 -710 0 -776 65 -86 84 -86 222 0 306
66 65 21 62 777 65 l687 3 0 667 c0 404 4 681 10 701 36 126 180 195 295 142z"/>
</g>
</svg>
